<svg width="325" height="456" viewBox="0 0 325 456" fill="none" xmlns="http://www.w3.org/2000/svg">
<path d="M41.8481 1.19734C35.1684 0.45286 28.4887 0.304486 21.809 0.752214C15.1293 1.19994 10.8781 2.02963 9.05541 3.24128C7.23268 4.45292 5.34131 8.33521 3.38129 14.8881C1.42127 21.4411 0.461235 28.3929 0.501198 35.7437C0.54116 43.0945 0.955703 50.4453 1.74483 57.7961C2.53395 65.1469 2.82139 72.4977 2.60713 79.8485C2.39287 87.1993 2.43289 94.5501 2.72717 101.901C3.02145 109.252 2.88408 116.603 2.31506 123.953C1.74603 131.304 1.38187 138.655 1.22258 146.006C1.06329 153.357 0.988901 160.707 0.999423 168.058C1.00995 175.409 1.30506 182.76 1.88475 190.111C2.46445 197.461 2.59321 204.812 2.27102 212.163C1.94883 219.514 2.0098 226.865 2.45392 234.215C2.89804 241.566 3.1316 248.917 3.15461 256.268C3.17761 263.619 3.04283 270.969 2.75025 278.32C2.45767 285.671 2.15229 293.022 1.83412 300.373C1.51594 307.723 1.36234 315.074 1.37332 322.425C1.3843 329.776 1.64369 337.127 2.1515 344.477C2.65931 351.828 2.95212 359.179 3.02994 366.53C3.10776 373.881 2.67882 381.231 1.74313 388.582C0.807426 395.933 0.542105 403.284 0.947164 410.635C1.35222 417.985 1.76349 425.334 2.18095 432.68C2.59842 440.027 5.04185 445.354 9.51123 448.663C13.9806 451.972 19.5552 453.926 26.2348 454.525C32.9145 455.124 39.5942 455.369 46.2739 455.262C52.9536 455.154 59.6333 454.758 66.313 454.074C72.9927 453.39 79.6724 453.194 86.3521 453.485C93.0317 453.776 99.7114 454.236 106.391 454.866C113.071 455.496 119.751 455.63 126.43 455.268C133.11 454.906 139.79 454.628 146.469 454.436C153.149 454.244 159.829 454.023 166.508 453.775C173.188 453.526 179.868 453.562 186.547 453.881C193.227 454.2 199.907 454.312 206.586 454.219C213.266 454.125 219.946 454.378 226.626 454.976C233.305 455.575 239.985 455.495 246.665 454.736C253.344 453.977 260.024 453.859 266.704 454.383C273.383 454.906 280.063 455.247 286.743 455.405C293.422 455.563 300.144 455.524 306.906 455.29C313.669 455.056 317.984 451.628 319.851 445.007C321.719 438.385 322.811 431.4 323.13 424.049C323.448 416.698 323.614 409.347 323.63 401.996C323.646 394.646 323.7 387.295 323.793 379.944C323.886 372.593 323.657 365.242 323.107 357.892C322.556 350.541 322.415 343.19 322.683 335.839C322.95 328.488 323.301 321.137 323.734 313.787C324.168 306.436 324.349 299.085 324.279 291.734C324.209 284.383 324.257 277.033 324.422 269.682C324.587 262.331 324.49 254.98 324.13 247.629C323.77 240.279 323.407 232.928 323.041 225.577C322.676 218.226 322.555 210.875 322.68 203.525C322.805 196.174 322.854 188.823 322.829 181.472C322.803 174.121 322.805 166.771 322.833 159.42C322.862 152.069 323.053 144.718 323.405 137.367C323.757 130.017 323.776 122.666 323.461 115.315C323.147 107.964 323.163 100.613 323.51 93.2626C323.858 85.9118 324.027 78.561 324.02 71.2102C324.013 63.8594 324.02 56.5086 324.042 49.1578C324.064 41.807 324.173 34.4562 324.369 27.1054C324.566 19.7546 322.616 13.7227 318.52 9.00982C314.424 4.2969 309.036 2.08012 302.356 2.35947C295.676 2.63882 288.997 2.81388 282.317 2.88467C275.637 2.95545 268.958 2.62752 262.278 1.90088C255.598 1.17425 248.919 0.995955 242.239 1.36601C235.559 1.73607 228.879 1.67262 222.2 1.17566C215.52 0.678698 208.84 0.618215 202.161 0.994207C195.481 1.3702 188.801 1.57754 182.122 1.61623C175.442 1.65492 168.762 1.41795 162.083 0.905346C155.403 0.392737 148.723 0.574188 142.043 1.4497C135.364 2.32521 128.684 2.60614 122.004 2.29249C115.325 1.97884 108.645 1.96254 101.965 2.24357C95.2856 2.52461 88.6059 2.31652 81.9262 1.6193C75.2465 0.922082 68.5669 0.86357 61.8872 1.44376C55.2075 2.02396 48.5278 1.94181 41.8481 1.19734Z" fill="#FFFDF8" stroke="#F4EFE0"/>
<path d="M66.2215 0.521614C66.7815 0.479441 67.3419 0.498989 67.9011 0.580208C68.231 0.628131 68.5421 0.74651 68.781 0.976692C69.0255 1.21226 69.1467 1.51854 69.1765 1.84779C69.2183 2.30906 69.2732 2.79854 69.3426 3.31556C69.4168 3.86932 69.4401 4.42418 69.4109 4.97865C69.4087 5.01972 69.4038 5.06063 69.4011 5.10169C69.6579 5.23947 69.9026 5.40016 70.1345 5.58411C70.6013 5.95436 70.9741 6.40631 71.2498 6.93568C71.4702 7.35905 71.7514 7.74667 72.0935 8.09974C72.533 8.55331 72.8209 9.0913 72.95 9.70423C73.0665 10.2576 73.1233 10.8138 73.1199 11.3712C73.1183 11.6278 73.1231 11.8057 73.1326 11.9142C73.1327 11.9155 73.1325 11.9169 73.1326 11.9181C73.1355 11.9229 73.1392 11.927 73.1414 11.9308C73.1795 11.9976 73.1978 12.0618 73.2068 12.0978C73.226 12.1747 73.2346 12.2598 73.24 12.3351C73.2515 12.4932 73.2534 12.7119 73.2478 12.9796C73.2352 13.5861 73.0849 14.1613 72.7996 14.6984C72.5646 15.1406 72.3712 15.5991 72.2185 16.0734C72.041 16.6246 71.7835 17.1399 71.447 17.6173C71.0998 18.11 70.6664 18.514 70.1511 18.8273C69.686 19.11 69.218 19.3759 68.7478 19.6242C68.2779 19.8723 67.7962 20.1089 67.3025 20.3331C66.7599 20.5797 66.189 20.7165 65.5935 20.7443C65.0012 20.7718 64.4215 20.6941 63.8592 20.5109C63.4067 20.3635 62.9338 20.2902 62.4392 20.2921C61.7961 20.2945 61.2028 20.1192 60.6726 19.7667C60.2293 19.4719 59.7817 19.1804 59.3308 18.8927C58.8012 18.5547 58.391 18.1003 58.1062 17.5372C57.8679 17.066 57.6149 16.6152 57.3484 16.1847C57.0563 15.7129 56.8128 15.213 56.6179 14.6876C56.4261 14.1703 56.271 13.6367 56.1531 13.087C56.0176 12.455 56.0842 11.8309 56.3465 11.2316C56.5385 10.7924 56.6287 10.3361 56.6179 9.85755C56.603 9.19396 56.7977 8.59178 57.2009 8.0724C57.5248 7.65534 57.831 7.2308 58.1179 6.79896C58.4642 6.27802 58.9286 5.88382 59.5017 5.6222C59.71 5.52716 59.9061 5.41206 60.0916 5.27845C60.1181 4.93947 60.1414 4.60075 60.1551 4.26185C60.1756 3.75049 60.1778 3.23901 60.1619 2.72767C60.1454 2.19873 60.1568 1.77041 60.2078 1.46888L60.2351 1.35365C60.3153 1.09693 60.5047 0.919502 60.7166 0.810677C60.9431 0.69436 61.2204 0.639791 61.5105 0.617317C62.0796 0.573284 62.6487 0.60742 63.2156 0.71888C63.6778 0.809786 64.1387 0.81339 64.6004 0.729622C65.1404 0.631653 65.6808 0.562346 66.2215 0.521614ZM72.8543 11.6915L72.8523 11.6906L72.7791 11.671L72.8543 11.6915Z" fill="#F1EAE0"/>
<path d="M115.388 0.521612C115.948 0.47944 116.508 0.498994 117.067 0.580206C117.397 0.628134 117.708 0.74646 117.947 0.97669C118.192 1.21229 118.313 1.51849 118.343 1.84778C118.384 2.30907 118.439 2.79853 118.509 3.31556C118.583 3.86933 118.606 4.42417 118.577 4.97864C118.575 5.01972 118.57 5.06062 118.567 5.10169C118.824 5.23946 119.069 5.40014 119.301 5.58411C119.767 5.95439 120.14 6.40625 120.416 6.93567C120.636 7.35906 120.918 7.74666 121.26 8.09974C121.699 8.55334 121.987 9.09124 122.116 9.70423C122.233 10.2576 122.289 10.8137 122.286 11.3712C122.284 11.6278 122.289 11.8057 122.299 11.9142C122.299 11.9155 122.299 11.9169 122.299 11.9181C122.302 11.923 122.305 11.927 122.308 11.9308C122.346 11.9976 122.364 12.0618 122.373 12.0978C122.392 12.1747 122.401 12.2598 122.406 12.3351C122.418 12.4932 122.42 12.7119 122.414 12.9796C122.401 13.5861 122.251 14.1613 121.966 14.6984C121.731 15.1406 121.537 15.5991 121.385 16.0734C121.207 16.6246 120.95 17.14 120.613 17.6173C120.266 18.11 119.833 18.514 119.317 18.8273C118.852 19.11 118.384 19.3759 117.914 19.6242C117.444 19.8723 116.962 20.1089 116.469 20.3331C115.926 20.5796 115.355 20.7165 114.76 20.7443C114.167 20.7718 113.588 20.6941 113.025 20.5109C112.573 20.3635 112.1 20.2902 111.605 20.2921C110.962 20.2945 110.369 20.1192 109.839 19.7667C109.395 19.4719 108.948 19.1804 108.497 18.8927C107.967 18.5547 107.557 18.1003 107.272 17.5372C107.034 17.0659 106.781 16.6152 106.515 16.1847C106.222 15.7129 105.979 15.213 105.784 14.6876C105.592 14.1703 105.437 13.6367 105.319 13.087C105.184 12.455 105.25 11.8309 105.513 11.2316C105.705 10.7924 105.795 10.336 105.784 9.85755C105.769 9.19397 105.964 8.59178 106.367 8.07239C106.691 7.65536 106.997 7.23077 107.284 6.79896C107.63 6.27803 108.095 5.88383 108.668 5.6222C108.876 5.52717 109.072 5.41207 109.258 5.27845C109.284 4.93947 109.308 4.60075 109.321 4.26185C109.342 3.75049 109.344 3.23902 109.328 2.72767C109.312 2.19874 109.323 1.77042 109.374 1.46888L109.401 1.35364C109.481 1.09693 109.671 0.919522 109.883 0.810674C110.109 0.694366 110.387 0.639795 110.677 0.617315C111.246 0.573283 111.815 0.607425 112.382 0.718878C112.844 0.809775 113.305 0.813363 113.767 0.72962C114.306 0.631658 114.847 0.562345 115.388 0.521612ZM122.02 11.6915L122.018 11.6906L121.945 11.671L122.02 11.6915Z" fill="#F1EAE0"/>
<path d="M164.554 0.521608C165.114 0.479439 165.674 0.499003 166.233 0.580201C166.563 0.628125 166.874 0.746492 167.113 0.976686C167.358 1.21228 167.479 1.51848 167.509 1.84778C167.551 2.30907 167.605 2.79852 167.675 3.31555C167.749 3.86933 167.772 4.42416 167.743 4.97864C167.741 5.01971 167.736 5.06062 167.733 5.10169C167.99 5.23946 168.235 5.40015 168.467 5.58411C168.933 5.95438 169.306 6.40625 169.582 6.93567C169.802 7.35905 170.084 7.74666 170.426 8.09973C170.865 8.55334 171.153 9.09124 171.282 9.70422C171.399 10.2576 171.456 10.8137 171.452 11.3712C171.451 11.6278 171.455 11.8057 171.465 11.9142C171.465 11.9155 171.465 11.9169 171.465 11.9181C171.468 11.923 171.471 11.927 171.474 11.9308C171.512 11.9976 171.53 12.0618 171.539 12.0978C171.558 12.1747 171.567 12.2598 171.572 12.3351C171.584 12.4932 171.586 12.7119 171.58 12.9796C171.567 13.5861 171.417 14.1613 171.132 14.6984C170.897 15.1406 170.703 15.5991 170.551 16.0734C170.373 16.6246 170.116 17.14 169.779 17.6173C169.432 18.1099 168.999 18.514 168.483 18.8273C168.018 19.11 167.55 19.3759 167.08 19.6241C166.61 19.8722 166.128 20.1089 165.635 20.3331C165.092 20.5796 164.521 20.7165 163.926 20.7443C163.333 20.7718 162.754 20.6941 162.191 20.5109C161.739 20.3635 161.266 20.2902 160.771 20.2921C160.128 20.2944 159.535 20.1192 159.005 19.7667C158.561 19.4719 158.114 19.1804 157.663 18.8927C157.133 18.5547 156.723 18.1002 156.438 17.5372C156.2 17.0659 155.947 16.6152 155.681 16.1847C155.388 15.7129 155.145 15.213 154.95 14.6876C154.758 14.1703 154.603 13.6367 154.485 13.087C154.35 12.455 154.417 11.8309 154.679 11.2316C154.871 10.7924 154.961 10.336 154.95 9.85755C154.935 9.19399 155.13 8.59176 155.533 8.07239C155.857 7.65538 156.163 7.23075 156.45 6.79895C156.796 6.27805 157.261 5.88383 157.834 5.62219C158.042 5.52717 158.238 5.41207 158.424 5.27844C158.45 4.93947 158.474 4.60075 158.487 4.26184C158.508 3.75048 158.51 3.23901 158.494 2.72766C158.478 2.19875 158.489 1.77042 158.54 1.46887L158.567 1.35364C158.647 1.09697 158.837 0.919521 159.049 0.81067C159.275 0.694377 159.553 0.639796 159.843 0.617311C160.412 0.573281 160.981 0.607437 161.548 0.718873C162.01 0.809763 162.471 0.813337 162.933 0.729615C163.472 0.63166 164.013 0.562341 164.554 0.521608ZM171.186 11.6915L171.185 11.6906L171.111 11.671L171.186 11.6915Z" fill="#F1EAE0"/>
<path d="M213.72 0.521608C214.28 0.479439 214.84 0.499003 215.399 0.580201C215.729 0.628125 216.04 0.746492 216.279 0.976686C216.524 1.21228 216.645 1.51848 216.675 1.84778C216.717 2.30907 216.772 2.79852 216.841 3.31555C216.915 3.86933 216.938 4.42416 216.909 4.97864C216.907 5.01971 216.902 5.06062 216.899 5.10169C217.156 5.23946 217.401 5.40015 217.633 5.58411C218.1 5.95438 218.472 6.40625 218.748 6.93567C218.969 7.35905 219.25 7.74666 219.592 8.09973C220.031 8.55334 220.319 9.09124 220.448 9.70422C220.565 10.2576 220.622 10.8137 220.618 11.3712C220.617 11.6278 220.621 11.8057 220.631 11.9142C220.631 11.9155 220.631 11.9169 220.631 11.9181C220.634 11.923 220.638 11.927 220.64 11.9308C220.678 11.9976 220.696 12.0618 220.705 12.0978C220.724 12.1747 220.733 12.2598 220.738 12.3351C220.75 12.4932 220.752 12.7119 220.746 12.9796C220.733 13.5861 220.583 14.1613 220.298 14.6984C220.063 15.1406 219.87 15.5991 219.717 16.0734C219.539 16.6246 219.282 17.14 218.945 17.6173C218.598 18.1099 218.165 18.514 217.649 18.8273C217.184 19.11 216.716 19.3759 216.246 19.6241C215.776 19.8722 215.294 20.1089 214.801 20.3331C214.258 20.5796 213.687 20.7165 213.092 20.7443C212.5 20.7718 211.92 20.6941 211.357 20.5109C210.905 20.3635 210.432 20.2902 209.938 20.2921C209.294 20.2944 208.701 20.1192 208.171 19.7667C207.728 19.4719 207.28 19.1804 206.829 18.8927C206.299 18.5547 205.889 18.1002 205.605 17.5372C205.366 17.0659 205.113 16.6152 204.847 16.1847C204.555 15.7129 204.311 15.213 204.116 14.6876C203.924 14.1703 203.769 13.6367 203.651 13.087C203.516 12.455 203.583 11.8309 203.845 11.2316C204.037 10.7924 204.127 10.336 204.116 9.85755C204.101 9.19399 204.296 8.59176 204.699 8.07239C205.023 7.65538 205.329 7.23075 205.616 6.79895C205.962 6.27805 206.427 5.88383 207 5.62219C207.208 5.52717 207.404 5.41207 207.59 5.27844C207.616 4.93947 207.64 4.60075 207.653 4.26184C207.674 3.75048 207.676 3.23901 207.66 2.72766C207.644 2.19875 207.655 1.77042 207.706 1.46887L207.733 1.35364C207.814 1.09697 208.003 0.919521 208.215 0.81067C208.441 0.694377 208.719 0.639796 209.009 0.617311C209.578 0.573281 210.147 0.607437 210.714 0.718873C211.176 0.809763 211.637 0.813337 212.099 0.729615C212.639 0.63166 213.179 0.562341 213.72 0.521608ZM220.353 11.6915L220.351 11.6906L220.277 11.671L220.353 11.6915Z" fill="#F1EAE0"/>
<path d="M262.886 0.521603C263.446 0.479437 264.006 0.499012 264.566 0.580197C264.895 0.628117 265.207 0.746524 265.445 0.976681C265.69 1.21228 265.811 1.51848 265.841 1.84778C265.883 2.30906 265.938 2.79852 266.007 3.31555C266.081 3.86933 266.105 4.42415 266.075 4.97863C266.073 5.01971 266.068 5.06061 266.066 5.10168C266.322 5.23946 266.567 5.40016 266.799 5.5841C267.266 5.95437 267.639 6.40627 267.914 6.93567C268.135 7.35902 268.416 7.74667 268.758 8.09973C269.197 8.55333 269.485 9.09124 269.614 9.70422C269.731 10.2576 269.788 10.8137 269.784 11.3712C269.783 11.6278 269.787 11.8057 269.797 11.9142C269.797 11.9155 269.797 11.9168 269.797 11.9181C269.8 11.9229 269.804 11.927 269.806 11.9308C269.844 11.9976 269.862 12.0618 269.871 12.0978C269.89 12.1747 269.899 12.2598 269.904 12.3351C269.916 12.4932 269.918 12.7119 269.912 12.9796C269.9 13.5861 269.749 14.1613 269.464 14.6984C269.229 15.1406 269.036 15.5991 268.883 16.0734C268.705 16.6245 268.448 17.14 268.111 17.6173C267.764 18.1099 267.331 18.514 266.816 18.8273C266.351 19.11 265.882 19.3759 265.412 19.6241C264.942 19.8722 264.46 20.1089 263.967 20.3331C263.424 20.5795 262.853 20.7165 262.258 20.7443C261.666 20.7718 261.086 20.694 260.524 20.5109C260.071 20.3635 259.598 20.2902 259.104 20.2921C258.461 20.2944 257.867 20.1192 257.337 19.7667C256.894 19.4719 256.446 19.1804 255.995 18.8927C255.466 18.5547 255.055 18.1002 254.771 17.5372C254.532 17.0659 254.279 16.6152 254.013 16.1847C253.721 15.7129 253.477 15.213 253.282 14.6876C253.09 14.1703 252.935 13.6367 252.818 13.087C252.682 12.455 252.749 11.8309 253.011 11.2316C253.203 10.7924 253.293 10.336 253.282 9.85754C253.267 9.19401 253.462 8.59174 253.865 8.07238C254.189 7.65539 254.495 7.23072 254.782 6.79895C255.129 6.27808 255.593 5.88383 256.166 5.62219C256.374 5.52717 256.57 5.41207 256.756 5.27844C256.783 4.93946 256.806 4.60074 256.819 4.26184C256.84 3.75048 256.842 3.23901 256.826 2.72766C256.81 2.19876 256.821 1.77041 256.872 1.46887L256.9 1.35363C256.98 1.097 257.169 0.919521 257.381 0.810666C257.607 0.694388 257.885 0.639797 258.175 0.617306C258.744 0.57328 259.313 0.60745 259.88 0.718869C260.342 0.809751 260.803 0.813312 261.265 0.729611C261.805 0.631663 262.345 0.562338 262.886 0.521603ZM269.519 11.6915L269.517 11.6905L269.443 11.671L269.519 11.6915Z" fill="#F1EAE0"/>
</svg>
